<svg width="804" height="106" viewBox="0 0 804 106" fill="none" xmlns="http://www.w3.org/2000/svg">
<g clip-path="url(#clip0_1_2)">
<path d="M0.4953 53.3326V0.318409H53.0117H105.529L110.483 1.1843C127.163 4.09972 143.102 16.9373 147.431 30.9459L147.826 32.228H139.577H131.329L129.504 28.7974C123.9 18.2599 112.235 12.387 98.0878 12.9818L91.7474 13.2484L87.3251 14.7622C74.4442 19.1717 63.0354 33.5017 63.0354 45.2736V46.4734H74.1229H85.2093V52.4564V58.4395H73.8746H62.5388L62.8389 60.5763C67.6825 95.0012 113.201 107.064 129.493 78.2405L131.346 74.9641H139.548C144.059 74.9641 147.75 75.098 147.75 75.2616C147.75 84.1814 129.16 100.652 114.49 104.731L109.941 105.995L55.2182 106.171L0.4953 106.347V53.3326ZM61.8163 89.8721C54.9522 82.5416 50.4652 73.2254 48.8049 62.8555L48.0975 58.4395H30.2662H12.4349V76.3887V94.3378H39.2158H65.9974L61.8163 89.8721ZM48.9176 43.4305C50.2875 33.8295 55.5006 23.3701 62.6671 15.8458L66.0586 12.2846H39.2468H12.4349V29.3869V46.4893L30.4796 46.3389L48.5241 46.1884L48.9176 43.4305Z" fill="white"/>
<path d="M192.196 30.3677V49.2966H211.778V53.6995H192.196V73.6068H216.334V77.784H187.376V26.0776H215.468L214.828 30.3677H192.196ZM258.254 51.6674C258.254 46.8505 257.714 43.0246 256.635 40.1896C255.581 37.3296 254.2 35.1972 252.493 33.7922C250.785 32.3872 248.94 31.459 246.957 31.0074C244.999 30.5558 243.103 30.33 241.271 30.33H234.154V73.6445H241.384C243.292 73.6445 245.225 73.3434 247.183 72.7413C249.166 72.1392 250.986 71.0479 252.643 69.4673C254.325 67.8868 255.681 65.6665 256.71 62.8065C257.74 59.9214 258.254 56.2083 258.254 51.6674ZM263.488 51.6674C263.488 56.0327 263.024 59.7457 262.095 62.8065C261.167 65.8421 259.911 68.351 258.329 70.3329C256.773 72.2897 255.003 73.8076 253.02 74.8863C251.037 75.9651 248.966 76.7177 246.807 77.1443C244.673 77.5708 242.602 77.784 240.593 77.784H229.372V26.0776H239.802C242.74 26.0776 245.614 26.4163 248.426 27.0937C251.237 27.746 253.773 28.9879 256.032 30.8193C258.317 32.6256 260.124 35.2096 261.455 38.5715C262.811 41.9081 263.488 46.2734 263.488 51.6674ZM306.576 26.0776V61.1883C306.576 64.6755 305.873 67.7237 304.467 70.3329C303.061 72.9169 301.116 74.9366 298.63 76.3916C296.145 77.8216 293.27 78.5366 290.007 78.5366C286.693 78.5366 283.806 77.809 281.346 76.354C278.911 74.8738 277.015 72.8292 275.66 70.22C274.329 67.6108 273.664 64.6002 273.664 61.1883V26.0776H278.409V62.8441C278.409 66.5571 279.476 69.3419 281.609 71.1984C283.743 73.0298 286.542 73.9455 290.007 73.9455C293.522 73.9455 296.346 73.0298 298.48 71.1984C300.639 69.3419 301.718 66.5571 301.718 62.8441V26.0776H306.576ZM346.086 63.9731H324.019L319.463 77.784H314.944L332.077 26.0776H338.441L355.613 77.784H350.642L346.086 63.9731ZM325.638 59.6077H344.504L335.128 30.5558L325.638 59.6077ZM397.796 40.1896C397.796 42.8239 397.207 45.1194 396.027 47.0763C394.846 49.0081 393.253 50.6011 391.244 51.8556C389.235 53.0848 386.976 53.9629 384.466 54.4898L400.357 77.784H394.332L379.345 54.8661H371.286V77.784H366.466V26.0776H378.855C385.056 26.0776 389.763 27.2819 392.976 29.6903C396.19 32.0988 397.796 35.5985 397.796 40.1896ZM392.487 40.1896C392.487 36.6272 391.457 34.0807 389.399 32.5503C387.366 30.9948 384.178 30.2172 379.834 30.2172H371.286V50.7266H379.684C383.726 50.7266 386.863 49.9363 389.098 48.3558C391.357 46.7502 392.487 44.0281 392.487 40.1896ZM438.888 51.6674C438.888 46.8505 438.348 43.0246 437.269 40.1896C436.214 37.3296 434.834 35.1972 433.127 33.7922C431.419 32.3872 429.574 31.459 427.591 31.0074C425.633 30.5558 423.737 30.33 421.905 30.33H414.788V73.6445H422.018C423.925 73.6445 425.859 73.3434 427.817 72.7413C429.8 72.1392 431.62 71.0479 433.277 69.4673C434.959 67.8868 436.314 65.6665 437.344 62.8065C438.374 59.9214 438.888 56.2083 438.888 51.6674ZM444.122 51.6674C444.122 56.0327 443.657 59.7457 442.729 62.8065C441.8 65.8421 440.545 68.351 438.963 70.3329C437.406 72.2897 435.637 73.8076 433.654 74.8863C431.671 75.9651 429.6 76.7177 427.44 77.1443C425.307 77.5708 423.236 77.784 421.227 77.784H410.005V26.0776H420.436C423.373 26.0776 426.248 26.4163 429.06 27.0937C431.871 27.746 434.407 28.9879 436.666 30.8193C438.95 32.6256 440.758 35.2096 442.089 38.5715C443.444 41.9081 444.122 46.2734 444.122 51.6674ZM489.318 52.0061C489.318 57.1491 488.628 61.7277 487.247 65.7418C485.867 69.7308 483.796 72.8668 481.034 75.1498C478.298 77.4077 474.871 78.5366 470.754 78.5366C466.662 78.5366 463.235 77.4327 460.473 75.225C457.712 72.9922 455.64 69.8939 454.26 65.9299C452.88 61.966 452.189 57.3624 452.189 52.119C452.189 46.9508 452.88 42.3597 454.26 38.3457C455.64 34.3065 457.712 31.1329 460.473 28.8248C463.235 26.5166 466.662 25.3626 470.754 25.3626C474.871 25.3626 478.298 26.4916 481.034 28.7495C483.796 30.9824 485.867 34.1058 487.247 38.1199C488.628 42.1089 489.318 46.7376 489.318 52.0061ZM484.197 52.0061C484.197 44.9563 483.156 39.4997 481.072 35.6362C478.987 31.7475 475.549 29.8032 470.754 29.8032C465.958 29.8032 462.52 31.7601 460.436 35.6738C458.352 39.5875 457.31 45.0692 457.31 52.119C457.31 59.1436 458.389 64.5626 460.549 68.376C462.708 72.1894 466.109 74.0961 470.754 74.0961C475.523 74.0961 478.95 72.1894 481.034 68.376C483.143 64.5375 484.197 59.0809 484.197 52.0061ZM565.439 25.3626C568.728 25.3626 571.464 25.7766 573.648 26.6045C575.832 27.4073 577.928 28.6116 579.937 30.2172L576.999 33.5664C575.318 32.1364 573.548 31.1454 571.69 30.5935C569.857 30.0164 567.949 29.7279 565.966 29.7279C562.953 29.7279 560.142 30.4179 557.531 31.7977C554.946 33.1775 552.861 35.4856 551.28 38.722C549.698 41.9333 548.908 46.3362 548.908 51.9308C548.908 57.3749 549.661 61.7151 551.167 64.9515C552.673 68.1878 554.694 70.521 557.23 71.951C559.79 73.3811 562.627 74.0961 565.74 74.0961C568.728 74.0961 571.175 73.6695 573.083 72.8166C575.016 71.9636 576.66 70.9726 578.016 69.8437L580.727 73.3058C579.272 74.7108 577.313 75.94 574.853 76.9937C572.418 78.0224 569.406 78.5366 565.815 78.5366C561.773 78.5366 558.083 77.5206 554.744 75.4884C551.43 73.4313 548.795 70.4332 546.836 66.4944C544.878 62.5305 543.899 57.6759 543.899 51.9308C543.899 46.1104 544.891 41.2307 546.874 37.292C548.883 33.3532 551.519 30.3803 554.782 28.3732C558.071 26.3661 561.622 25.3626 565.439 25.3626ZM617.036 77.784V52.42H595.422V77.784H590.639V26.0776H595.422V48.5063H617.036V26.0776H621.819V77.784H617.036ZM662.195 63.9731H640.128L635.572 77.784H631.053L648.187 26.0776H654.551L671.722 77.784H666.751L662.195 63.9731ZM641.747 59.6077H660.613L651.237 30.5558L641.747 59.6077ZM696.659 71.0102L711.91 26.0776H716.692L698.655 77.784H694.437L676.362 26.0776H681.596L696.659 71.0102ZM734.098 30.3677V49.2966H753.679V53.6995H734.098V73.6068H758.236V77.784H729.278V26.0776H757.37L756.729 30.3677H734.098ZM803.959 63.7096C803.959 66.5947 803.243 69.1537 801.813 71.3866C800.406 73.6194 798.348 75.3756 795.637 76.655C792.926 77.9095 789.612 78.5366 785.696 78.5366C782.256 78.5366 779.03 77.9972 776.018 76.9185C773.03 75.8397 770.445 74.2592 768.261 72.1768L771.424 68.5642C773.181 70.245 775.227 71.5998 777.562 72.6284C779.896 73.6319 782.696 74.1337 785.959 74.1337C788.168 74.1337 790.265 73.7574 792.248 73.0047C794.231 72.2521 795.85 71.0981 797.105 69.5426C798.361 67.9871 798.988 66.0052 798.988 63.5967C798.988 61.7904 798.649 60.2601 797.972 59.0056C797.294 57.7261 796.089 56.5972 794.357 55.6188C792.624 54.6153 790.19 53.6619 787.051 52.7587C783.837 51.8305 780.976 50.7768 778.465 49.5976C775.955 48.3934 773.984 46.8881 772.553 45.0818C771.122 43.2504 770.407 40.9423 770.407 38.1575C770.407 35.7491 771.06 33.579 772.365 31.6472C773.696 29.7154 775.553 28.185 777.938 27.0561C780.324 25.9271 783.122 25.3626 786.336 25.3626C789.775 25.3626 792.75 25.8518 795.26 26.8303C797.796 27.8087 800.131 29.2137 802.264 31.0451L799.026 34.5825C797.143 32.8764 795.11 31.6472 792.926 30.8945C790.766 30.1419 788.57 29.7656 786.336 29.7656C784.353 29.7656 782.519 30.0792 780.838 30.7064C779.156 31.3085 777.801 32.2242 776.771 33.4535C775.741 34.6828 775.227 36.2509 775.227 38.1575C775.227 39.7631 775.654 41.1555 776.507 42.3347C777.361 43.4887 778.791 44.5549 780.8 45.5334C782.834 46.4868 785.57 47.4652 789.009 48.4687C791.519 49.1711 793.918 50.0743 796.202 51.1782C798.486 52.2569 800.344 53.7874 801.775 55.7693C803.231 57.7261 803.959 60.373 803.959 63.7096Z" fill="white"/>
</g>
<defs>
<clipPath id="clip0_1_2">
<rect width="804" height="106" fill="white"/>
</clipPath>
</defs>
</svg>
